<mxfile host="app.diagrams.net" modified="2022-11-02T22:12:41.605Z" agent="5.0 (Windows NT 6.1; Win64; x64) AppleWebKit/537.36 (KHTML, like Gecko) Chrome/107.0.0.0 Safari/537.36" etag="aOX5bAoFf780FOSc5wD5" version="20.5.1" type="github">
  <diagram id="kgpKYQtTHZ0yAKxKKP6v" name="Page-1">
    <mxGraphModel dx="782" dy="468" grid="1" gridSize="10" guides="1" tooltips="1" connect="1" arrows="1" fold="1" page="1" pageScale="1" pageWidth="850" pageHeight="1100" math="0" shadow="0">
      <root>
        <mxCell id="0" />
        <mxCell id="1" parent="0" />
        <mxCell id="3nuBFxr9cyL0pnOWT2aG-1" value="Camara" style="shape=umlLifeline;perimeter=lifelinePerimeter;container=1;collapsible=0;recursiveResize=0;rounded=0;shadow=0;strokeWidth=1;" parent="1" vertex="1">
          <mxGeometry x="120" y="80" width="100" height="300" as="geometry" />
        </mxCell>
        <mxCell id="7ilyxpHe6dsUU-jGwLWj-4" value="" style="html=1;points=[];perimeter=orthogonalPerimeter;strokeColor=default;fillColor=none;" vertex="1" parent="3nuBFxr9cyL0pnOWT2aG-1">
          <mxGeometry x="45" y="50" width="10" height="240" as="geometry" />
        </mxCell>
        <mxCell id="7ilyxpHe6dsUU-jGwLWj-5" value="enviar datos (fecha hora, id camara.patente, velocidad)" style="html=1;verticalAlign=bottom;endArrow=block;rounded=0;" edge="1" parent="3nuBFxr9cyL0pnOWT2aG-1" target="7ilyxpHe6dsUU-jGwLWj-3">
          <mxGeometry x="-0.0328" width="80" relative="1" as="geometry">
            <mxPoint x="60" y="70" as="sourcePoint" />
            <mxPoint x="140" y="70" as="targetPoint" />
            <mxPoint as="offset" />
          </mxGeometry>
        </mxCell>
        <mxCell id="7ilyxpHe6dsUU-jGwLWj-3" value=":Sistema&lt;br&gt;" style="shape=umlLifeline;perimeter=lifelinePerimeter;whiteSpace=wrap;html=1;container=1;collapsible=0;recursiveResize=0;outlineConnect=0;strokeColor=default;fillColor=none;" vertex="1" parent="1">
          <mxGeometry x="420" y="80" width="100" height="300" as="geometry" />
        </mxCell>
        <mxCell id="7ilyxpHe6dsUU-jGwLWj-11" value="enviar datos(datos)" style="html=1;verticalAlign=bottom;endArrow=block;rounded=0;fontSize=10;" edge="1" parent="7ilyxpHe6dsUU-jGwLWj-3" target="7ilyxpHe6dsUU-jGwLWj-9">
          <mxGeometry width="80" relative="1" as="geometry">
            <mxPoint x="50" y="160" as="sourcePoint" />
            <mxPoint x="130" y="160" as="targetPoint" />
          </mxGeometry>
        </mxCell>
        <mxCell id="7ilyxpHe6dsUU-jGwLWj-13" value="enviar datos a &quot;avisos@ciudad&quot;" style="html=1;verticalAlign=bottom;endArrow=block;rounded=0;fontSize=10;" edge="1" parent="7ilyxpHe6dsUU-jGwLWj-3" target="7ilyxpHe6dsUU-jGwLWj-9">
          <mxGeometry width="80" relative="1" as="geometry">
            <mxPoint x="50" y="210" as="sourcePoint" />
            <mxPoint x="130" y="210" as="targetPoint" />
          </mxGeometry>
        </mxCell>
        <mxCell id="7ilyxpHe6dsUU-jGwLWj-8" value="por c/ auto que pase" style="shape=umlFrame;whiteSpace=wrap;html=1;strokeColor=default;fontSize=10;fillColor=none;" vertex="1" parent="1">
          <mxGeometry x="60" y="130" width="440" height="70" as="geometry" />
        </mxCell>
        <mxCell id="7ilyxpHe6dsUU-jGwLWj-9" value=":Api Externa" style="shape=umlLifeline;perimeter=lifelinePerimeter;whiteSpace=wrap;html=1;container=1;collapsible=0;recursiveResize=0;outlineConnect=0;strokeColor=default;fontSize=10;fillColor=none;" vertex="1" parent="1">
          <mxGeometry x="610" y="80" width="100" height="300" as="geometry" />
        </mxCell>
        <mxCell id="7ilyxpHe6dsUU-jGwLWj-12" value="return" style="html=1;verticalAlign=bottom;endArrow=open;dashed=1;endSize=8;rounded=0;fontSize=10;" edge="1" parent="1" target="7ilyxpHe6dsUU-jGwLWj-3">
          <mxGeometry relative="1" as="geometry">
            <mxPoint x="660" y="260" as="sourcePoint" />
            <mxPoint x="580" y="260" as="targetPoint" />
          </mxGeometry>
        </mxCell>
        <mxCell id="7ilyxpHe6dsUU-jGwLWj-14" value="return" style="html=1;verticalAlign=bottom;endArrow=open;dashed=1;endSize=8;rounded=0;fontSize=10;" edge="1" parent="1" target="7ilyxpHe6dsUU-jGwLWj-3">
          <mxGeometry relative="1" as="geometry">
            <mxPoint x="660" y="310" as="sourcePoint" />
            <mxPoint x="580" y="310" as="targetPoint" />
          </mxGeometry>
        </mxCell>
        <mxCell id="7ilyxpHe6dsUU-jGwLWj-16" value="ALT&lt;br&gt;&lt;div style=&quot;text-align: left; font-size: 9px;&quot;&gt;&lt;span style=&quot;background-color: initial;&quot;&gt;&lt;span style=&quot;font-size: 12px;&quot;&gt;&amp;nbsp;&lt;/span&gt;&lt;font style=&quot;font-size: 9px;&quot;&gt;[velocidad&amp;nbsp;&lt;/font&gt;&lt;/span&gt;&lt;font style=&quot;font-size: 9px;&quot; face=&quot;arial, sans-serif&quot; color=&quot;#4d5156&quot;&gt;&lt;span style=&quot;background-color: rgb(255, 255, 255);&quot;&gt;&amp;nbsp;&lt;/span&gt;&lt;/font&gt;&lt;/div&gt;&lt;span style=&quot;color: rgb(77, 81, 86); font-family: arial, sans-serif; text-align: left; background-color: rgb(255, 255, 255); font-size: 9px;&quot;&gt;&lt;font style=&quot;font-size: 9px;&quot;&gt;&lt;font style=&quot;font-size: 9px;&quot;&gt;&amp;gt; &lt;b style=&quot;&quot;&gt;70km&lt;/b&gt;&lt;/font&gt;&lt;span style=&quot;font-size: 12px;&quot;&gt;]&lt;/span&gt;&lt;/font&gt;&lt;/span&gt;" style="shape=umlFrame;whiteSpace=wrap;html=1;strokeColor=default;fontSize=10;fillColor=none;width=50;height=50;" vertex="1" parent="1">
          <mxGeometry x="410" y="220" width="300" height="110" as="geometry" />
        </mxCell>
        <mxCell id="7ilyxpHe6dsUU-jGwLWj-17" value="" style="html=1;points=[];perimeter=orthogonalPerimeter;strokeColor=default;fontSize=9;fillColor=none;" vertex="1" parent="1">
          <mxGeometry x="655" y="240" width="10" height="20" as="geometry" />
        </mxCell>
        <mxCell id="7ilyxpHe6dsUU-jGwLWj-18" value="" style="html=1;points=[];perimeter=orthogonalPerimeter;strokeColor=default;fontSize=9;fillColor=none;" vertex="1" parent="1">
          <mxGeometry x="655" y="290" width="10" height="20" as="geometry" />
        </mxCell>
      </root>
    </mxGraphModel>
  </diagram>
</mxfile>
